<svg id="Objects" xmlns="http://www.w3.org/2000/svg" viewBox="0 0 404.06 395.32"><defs><style>.cls-1{fill:#ddcaca;opacity:0.33;}.cls-2{fill:#96b437;}.cls-3{fill:#78ba9a;}.cls-4{fill:#ffa938;}.cls-5{fill:#e1806d;}.cls-6{fill:#386539;}.cls-7{fill:#efebeb;}.cls-18,.cls-8,.cls-9{fill:#37366a;}.cls-9{font-size:6.03px;}.cls-15,.cls-18,.cls-9{font-family:Montserrat-Regular, Montserrat;}.cls-10{letter-spacing:-0.01em;}.cls-11{letter-spacing:0em;}.cls-12{letter-spacing:-0.01em;}.cls-13{letter-spacing:0em;}.cls-14{fill:#a43f60;}.cls-15{font-size:4.49px;fill:#f3f4e9;}.cls-16{letter-spacing:-0.02em;}.cls-17{opacity:0.57;}.cls-18{font-size:4.1px;}.cls-19{letter-spacing:-0.01em;}.cls-20{letter-spacing:0em;}.cls-21{letter-spacing:-0.01em;}.cls-22{letter-spacing:-0.02em;}.cls-23{letter-spacing:0em;}.cls-24,.cls-34{fill:none;stroke-miterlimit:10;stroke-width:0.5px;}.cls-24{stroke:#37366a;}.cls-25{opacity:0.52;}.cls-26{letter-spacing:0em;}.cls-27{letter-spacing:-0.06em;}.cls-28{letter-spacing:-0.01em;}.cls-29{letter-spacing:-0.02em;}.cls-30{letter-spacing:-0.01em;}.cls-31{letter-spacing:-0.01em;}.cls-32{letter-spacing:0.02em;}.cls-33{letter-spacing:0em;}.cls-34{stroke:#50c3e2;}.cls-35{fill:#6756ad;opacity:0.25;}.cls-36{fill:#f5ba9a;}.cls-37{fill:#594656;}.cls-38{fill:#b96944;}.cls-39{fill:#53648c;}.cls-40{fill:#5d95ba;}.cls-41{fill:#8fcaec;}.cls-42{fill:#689f6a;}.cls-43{fill:#f49e78;}.cls-44{fill:#514540;}.cls-45{opacity:0.28;}.cls-46{fill:#f28279;}</style></defs><path class="cls-1" d="M60.45,149.19l111.49-.35L143.5,143s1.16-31.92-12.77-25.53a24.83,24.83,0,0,0-14.51,20.31S111,125,103.45,129.69s-11,12.76-11,12.76-2.71-9.18-7.55-9.7c-4.13-.45-12,8.29-16.12,13.2Z" transform="translate(-54.97 -26.16)"/><path class="cls-1" d="M367.06,201l92-.26-23.46-4.31s1-23.72-10.53-19-12,15.09-12,15.09-4.31-9.49-10.54-6a23.76,23.76,0,0,0-9.09,9.49s-2.24-6.83-6.23-7.22c-3.41-.33-9.9,6.17-13.3,9.82Z" transform="translate(-54.97 -26.16)"/><path class="cls-1" d="M217.45,69.18l92-.29L286,64.11s1-26.34-10.54-21.07a20.5,20.5,0,0,0-12,16.76s-4.31-10.54-10.53-6.71a25.73,25.73,0,0,0-9.1,10.54s-2.23-7.58-6.22-8c-3.41-.37-9.9,6.84-13.3,10.89Z" transform="translate(-54.97 -26.16)"/><path class="cls-2" d="M379.23,53.26l-7,2.43-3-8.74a30.92,30.92,0,1,0-58.42,20.28l3,8.74-7,2.44A10.57,10.57,0,0,0,300.3,91.8L320,148.65a10.6,10.6,0,0,0,13.43,6.59l72.43-25.15a10.61,10.61,0,0,0,6.55-13.52L392.72,59.72A10.59,10.59,0,0,0,379.23,53.26ZM324,62.65a16.94,16.94,0,1,1,32-11.11l3,8.73L327,71.39Zm42,51.82L371,129a1.16,1.16,0,0,1-.78,1.46l-7,2.41a1.13,1.13,0,0,1-1.42-.69l-5-14.52a13.5,13.5,0,1,1,9.15-3.18Z" transform="translate(-54.97 -26.16)"/><path class="cls-3" d="M331.32,334.13c-1.72-3.35,2.31-6.94,6-7.61s7.91-.15,10.87-2.49c3.94-3.13,3.74-9.94,8.11-12.44,3.51-2,8.16-.09,11.87-1.67,4.62-2,5.92-8.4,10.45-10.56,3.61-1.73,8.34.22,10.18,3.77s1,8.14-1.56,11.22c-2,2.41-5,4.1-6.2,7-1.95,4.5,1.12,9.95-.67,14.51-3.3,8.42-18.92,5.89-21.63,14.52-.6,1.92-.35,4-.51,6-.46,6-4.68,11.2-9.88,14.17s-11.29,4-17.26,4.43c-2.45.17-5,.22-7.2-.9a11.72,11.72,0,0,1-4.59-5c-7.18-13-10.14-30,12-34.89" transform="translate(-54.97 -26.16)"/><path class="cls-4" d="M216.15,327.21c3.87-2.55,1.72-8.82-1.85-11.77s-8.37-4.93-10.13-9.21c-2.33-5.72,2-12.89-1.19-18.19-2.54-4.25-8.66-5-11.69-8.94-3.75-4.88-1.27-12.55-4.81-17.59-2.83-4-9-4.78-13.16-2.09s-6,8.11-5.09,12.94c.69,3.78,2.84,7.37,2.43,11.19-.62,6-7.19,10-8,15.92-1.54,11,16.69,17.69,14.39,28.56-.51,2.42-2,4.48-3.07,6.73-3.1,6.67-1.74,14.79,2,21.1S185.66,367,191.8,371c2.51,1.65,5.23,3.26,8.24,3.37,2.82.11,5.53-1.13,7.94-2.62,15.52-9.61,28.91-26,8.17-44.54" transform="translate(-54.97 -26.16)"/><path class="cls-5" d="M317.45,341c5.4-2.33,10.26-6.63,14.29-10.79,10.88-11.23,17.62-25.88,21.16-41,3.21-13.65,3.93-27.77,3.26-41.75-.06-1.18-1.91-1.19-1.85,0,1.5,31.4-4.73,69.92-32.82,89a30.8,30.8,0,0,1-5,2.89c-1.09.47-.15,2.06.93,1.59Z" transform="translate(-54.97 -26.16)"/><path class="cls-5" d="M353.16,284s1.78-10.17,15.25-11.78C368.41,272.18,363.49,284.21,353.16,284Z" transform="translate(-54.97 -26.16)"/><path class="cls-5" d="M348.74,299s4.1-9.48,17.58-7.9C366.32,291.09,358.73,301.65,348.74,299Z" transform="translate(-54.97 -26.16)"/><path class="cls-5" d="M343,312.24s6.12-8.32,18.9-3.76C361.92,308.48,352.16,317.07,343,312.24Z" transform="translate(-54.97 -26.16)"/><path class="cls-5" d="M355.23,268.16s1.74-10,15-11.58C370.22,256.58,365.39,268.42,355.23,268.16Z" transform="translate(-54.97 -26.16)"/><path class="cls-5" d="M355.41,250.79s-7.55-6.79-1.85-18.85C353.56,231.94,361,242.31,355.41,250.79Z" transform="translate(-54.97 -26.16)"/><path class="cls-5" d="M355.45,261.1s-10-1.85-11.44-15.11C344,246,355.8,250.94,355.45,261.1Z" transform="translate(-54.97 -26.16)"/><path class="cls-5" d="M354.46,276.33s-10-1.85-11.44-15.1C343,261.23,354.8,266.17,354.46,276.33Z" transform="translate(-54.97 -26.16)"/><path class="cls-5" d="M351.86,290.59s-9.82-2.54-10.35-15.86C341.51,274.73,352.92,280.48,351.86,290.59Z" transform="translate(-54.97 -26.16)"/><path class="cls-5" d="M347.34,304.84S337.51,302.31,337,289C337,289,348.39,294.73,347.34,304.84Z" transform="translate(-54.97 -26.16)"/><rect class="cls-6" x="141.92" y="69.4" width="143.42" height="281.22" rx="21.15"/><rect class="cls-7" x="148.54" y="77.67" width="130.18" height="263.01" rx="14.81"/><path class="cls-6" d="M307.56,103.83h-8.47a4.7,4.7,0,0,0-4.7,4.7v3.36a4.71,4.71,0,0,1-4.71,4.71H251.93a4.7,4.7,0,0,1-4.7-4.71v-3.36a4.71,4.71,0,0,0-4.71-4.7h-24v-2.41h89.08Z" transform="translate(-54.97 -26.16)"/><path class="cls-8" d="M272.22,144.36a1.75,1.75,0,1,0-1.64,0,2.74,2.74,0,0,0-1.91,2.61v1.38h5.46V147A2.74,2.74,0,0,0,272.22,144.36Z" transform="translate(-54.97 -26.16)"/><text class="cls-9" transform="translate(205.06 135.08)"><tspan class="cls-10">C</tspan><tspan class="cls-11" x="4.29" y="0">a</tspan><tspan x="7.85" y="0">dast</tspan><tspan class="cls-12" x="20.89" y="0">r</tspan><tspan class="cls-13" x="23.23" y="0">o</tspan></text><rect class="cls-14" x="185.87" y="289.95" width="54.17" height="12.16" rx="0.98"/><text class="cls-15" transform="translate(203.61 297.35)">Regis<tspan class="cls-16" x="12.44" y="0">t</tspan><tspan x="14.18" y="0">er</tspan></text><g class="cls-17"><text class="cls-18" transform="translate(166.89 148.23)">Email <tspan class="cls-19" x="12.8" y="0">A</tspan><tspan class="cls-20" x="15.72" y="0">dd</tspan><tspan class="cls-21" x="21.28" y="0">r</tspan><tspan class="cls-20" x="22.87" y="0">ess</tspan></text></g><text class="cls-18" transform="translate(171.5 161.61)"><tspan class="cls-22">y</tspan><tspan class="cls-23" x="2.16" y="0">ou</tspan><tspan class="cls-21" x="7.49" y="0">r</tspan><tspan class="cls-20" x="9.08" y="0">email@soluti</tspan><tspan class="cls-22" x="35.99" y="0">.</tspan><tspan x="36.79" y="0">c</tspan></text><rect class="cls-24" x="166.89" y="152.68" width="99.08" height="14.93" rx="2.76"/><g class="cls-25"><text class="cls-18" transform="translate(166.89 181.46)">Na<tspan class="cls-26" x="5.75" y="0">m</tspan><tspan x="10.11" y="0">e</tspan></text></g><text class="cls-18" transform="translate(171.5 194.72)"><tspan class="cls-27">Y</tspan><tspan x="2.36" y="0">our na</tspan><tspan class="cls-26" x="15.61" y="0">m</tspan><tspan x="19.97" y="0">e</tspan></text><rect class="cls-24" x="166.89" y="186.05" width="99.08" height="14.93" rx="2.76"/><g class="cls-25"><text class="cls-18" transform="translate(166.89 216.55)">Ope<tspan class="cls-28" x="8.7" y="0">r</tspan><tspan x="10.31" y="0">a</tspan><tspan class="cls-29" x="12.73" y="0">t</tspan><tspan x="14.31" y="0">or</tspan></text></g><text class="cls-18" transform="translate(171.5 229.8)"><tspan class="cls-27">Y</tspan><tspan x="2.36" y="0">our Ci</tspan><tspan class="cls-30" x="14.46" y="0">t</tspan><tspan x="16.09" y="0">y</tspan></text><rect class="cls-24" x="166.89" y="221.13" width="99.08" height="14.93" rx="2.76"/><g class="cls-25"><text class="cls-18" transform="translate(166.89 251.81)"><tspan class="cls-31">P</tspan><tspan class="cls-20" x="2.88" y="0">as</tspan><tspan class="cls-30" x="7.31" y="0">s</tspan><tspan class="cls-22" x="9.27" y="0">w</tspan><tspan x="12.82" y="0">o</tspan><tspan class="cls-21" x="15.39" y="0">r</tspan><tspan class="cls-20" x="16.98" y="0">d</tspan></text></g><text class="cls-18" transform="translate(171.5 265.06)">Ent<tspan class="cls-32" x="7.19" y="0">r</tspan><tspan class="cls-23" x="8.89" y="0">y </tspan><tspan class="cls-33" x="12.19" y="0">p</tspan><tspan x="14.96" y="0">as</tspan><tspan class="cls-30" x="19.38" y="0">s</tspan><tspan class="cls-22" x="21.35" y="0">w</tspan><tspan x="24.89" y="0">o</tspan><tspan class="cls-21" x="27.46" y="0">r</tspan><tspan class="cls-20" x="29.05" y="0">d</tspan></text><rect class="cls-24" x="166.89" y="256.39" width="99.08" height="14.93" rx="2.76"/><line class="cls-34" x1="212.09" y1="156.71" x2="212.09" y2="161.98"/><path class="cls-35" d="M318.23,419.36c0-1.16-28.53-2.1-63.73-2.1s-63.74.94-63.74,2.1,28.54,2.11,63.74,2.11S318.23,420.53,318.23,419.36Z" transform="translate(-54.97 -26.16)"/><path class="cls-36" d="M261.23,284.5s6.33,9.78,7.77,5.55l2.31-6.84s-1.8-2.95-2.75-2-2.29-.77-2.29-.77Z" transform="translate(-54.97 -26.16)"/><path class="cls-36" d="M292.53,233.92l2.62-15.19c1.72-.56,3.49-1.89,2.88-3.94a3,3,0,0,0-2-1.92c-.36-.14-2.19-.67-2.31,0l1-5.48-17.82-8.6s-1.63,10.91-1.64,11a5.39,5.39,0,0,0-2-.54,3,3,0,0,0-2.12,1.71,3.53,3.53,0,0,0,3.1,4.72s.31,4.89,1.44,6.63,6.38,2.94,6.38,2.94l-.58,6.61Z" transform="translate(-54.97 -26.16)"/><path class="cls-4" d="M298.55,235.17c-8.05-2.26-19.36-4.25-19.36-4.25l-7.51,53.44,31.62-1Z" transform="translate(-54.97 -26.16)"/><path class="cls-4" d="M298.55,235.17a209.9,209.9,0,0,0,31.71,6c-2.4-11-3.72-19.32-6.87-28.63l11.87-3s10,34.69,6.94,39.31c-5.14,7.88-30.76,2.69-30.76,2.69l-12.11-2.16Z" transform="translate(-54.97 -26.16)"/><path class="cls-4" d="M244.41,246.93s33.94-16.6,35.49-16,2.89,8.3,2.89,8.3a298.11,298.11,0,0,1-31.32,16.67l17.3,23.55-8.62,6.18s-23.76-26.7-22.86-32.22C238,249.18,244.41,246.93,244.41,246.93Z" transform="translate(-54.97 -26.16)"/><path class="cls-36" d="M334.75,209.6s-1.4-9.81-1.57-10.09-.17-2-2.69-1.6c0,0-.17-3.11-1.62-3.17a13.43,13.43,0,0,0-3.08.34s-1.64-8-2.71-9.36-2.78,2.47-.26,12.19c0,0,1.39,6.61,1,6.85-1.13.66-2.68.54-4.83-3.13-2.28-3.89-5.12-2.57-3.72.45s3.39,6.94,4.68,8,4,.9,4,.9l.4,1.26Z" transform="translate(-54.97 -26.16)"/><path class="cls-37" d="M303.3,283.39c-3.81,57.83-16.74,129.2-16.74,129.2L299.22,418h-27L290,291.74h-6.06L239.15,418H212.22l15.32-5.59,44.72-132.19Z" transform="translate(-54.97 -26.16)"/><path class="cls-38" d="M296.81,213.27c1.51-3,3.27-10.33-1.3-12.36a48,48,0,0,1-6.66-3.79,11.57,11.57,0,0,0-9.49-1.71,8.22,8.22,0,0,0-1.5.56c-3.19,1.56-5.35,10.05-5.35,10.05l3.14.79s3.5,15.56,9.26,18.76l5.75,1.22,3.41.77Z" transform="translate(-54.97 -26.16)"/><path class="cls-38" d="M292.64,199.83a20,20,0,0,0-.11-2.79c0-.38-.63-.38-.59,0a23.66,23.66,0,0,1,.11,2.79.3.3,0,0,0,.59,0Z" transform="translate(-54.97 -26.16)"/><path class="cls-38" d="M292.64,200a2.53,2.53,0,0,0,.74-1.1,11.37,11.37,0,0,1,.94-1.43c.23-.3-.28-.6-.51-.3a10.5,10.5,0,0,0-.76,1.12c-.2.32-.38,1-.71,1.19s0,.72.3.52Z" transform="translate(-54.97 -26.16)"/><path class="cls-35" d="M182.45,404c0-1.16-28.54-2.11-63.74-2.11S55,402.86,55,404s28.54,2.11,63.74,2.11S182.45,405.19,182.45,404Z" transform="translate(-54.97 -26.16)"/><path class="cls-37" d="M140.64,182.74a29.88,29.88,0,0,0-3.84-.45c-2.29-.22-4.37,1.26-6.09,2.77a19.93,19.93,0,0,0-4.09,5.48c-1.14,2-2.21,4.41-1.53,6.65a5.81,5.81,0,0,1,.44,1.72c0,1.85-2.58,2.55-3.38,4.23-1,2.06,1,4.85-.33,6.69-.69.91-2,1.2-2.65,2.15a4.25,4.25,0,0,0-.44,2.6.72.72,0,0,0,.16.52.79.79,0,0,0,.43.14c7.3.7,14.53-.88,21.83-.18a9.25,9.25,0,0,0,6.25-1.14c6.31-2.87,12.62-3.62,18.79-6.79a1.42,1.42,0,0,0,.66-.54,1.24,1.24,0,0,0,.08-.66,4.33,4.33,0,0,0-2.93-3.59c-1.6-.5-3.53-.06-4.87-1.08a4.52,4.52,0,0,1-1.45-3.23c-.26-2.45,0-5.29-1.75-7-1.4-1.34-3.63-1.48-5-2.82a18.29,18.29,0,0,1-1.86-2.71c-1.88-2.62-5.09-4.14-8.4-2.75" transform="translate(-54.97 -26.16)"/><path class="cls-39" d="M128.44,267.1,87.74,395.89l-16,6.17H95.5l45.94-121.33a2,2,0,0,1,1.88-1.29h0a2,2,0,0,1,2,2.22L133.2,402.06h24.06l-16.06-5.31s15-70,18.3-91.92-1.5-37.39-1.5-37.39S142.4,262.5,128.44,267.1Z" transform="translate(-54.97 -26.16)"/><path class="cls-5" d="M128.91,220.75c3.73-3.89,18.56-4.34,23.92-2.14s15.23,30.68,15.23,30.68l-9.81,3.85-6.09-23.81-19.08-2.63Z" transform="translate(-54.97 -26.16)"/><path class="cls-5" d="M154,232.83a31.32,31.32,0,0,0,2-7c.36-3-3.78-6-3.78-6l-22.44,5.81,1.4,13.37-3.3,27,28.52,1.06-2.86-34.14" transform="translate(-54.97 -26.16)"/><path class="cls-40" d="M131.49,233.6a.44.44,0,0,1-.27-.09.46.46,0,0,1-.1-.64l1.6-2.13a.46.46,0,1,1,.73.55l-1.59,2.13A.49.49,0,0,1,131.49,233.6Z" transform="translate(-54.97 -26.16)"/><path class="cls-41" d="M117.24,270.63l5.15-3" transform="translate(-54.97 -26.16)"/><path class="cls-36" d="M139.46,217.54c-.31-3,1.21-6-3.6-7.93-6.63-2.66-8.05-25.52,3.93-25.57s11.38,15,11.34,19.52-4,5.62-5,7.24-.14,6.74-.14,6.74Z" transform="translate(-54.97 -26.16)"/><path class="cls-36" d="M132.67,200.22a2.32,2.32,0,1,1-2.3-2.65A2.5,2.5,0,0,1,132.67,200.22Z" transform="translate(-54.97 -26.16)"/><ellipse class="cls-36" cx="96.88" cy="172.01" rx="2.3" ry="2.66"/><path class="cls-42" d="M201.43,246.57l-3.55-9L97.48,277a21.26,21.26,0,1,0,4.17,12.64,20.08,20.08,0,0,0-.17-2.58l76.46-31,4.2,9.23,9.33-4.27-3.28-7.35,3-1.6,3.55,7.07,6.67-3.56-3.69-7.54ZM80.37,303.49a13.86,13.86,0,1,1,13.86-13.86A13.87,13.87,0,0,1,80.37,303.49Z" transform="translate(-54.97 -26.16)"/><path class="cls-5" d="M128.91,220.75s-25.31,22.54-25.45,26.73,14.92,26.18,14.92,26.18l7.52-4.75-10.54-19.73,17.15-16.35s.56,3.8,1.93,4.83l.76-15Z" transform="translate(-54.97 -26.16)"/><path class="cls-37" d="M148.72,189.3c-3.29.17-17.87,1.65-17.87,1.65s2.13-8.75,8.94-9.1C148.72,181.4,148.72,189.3,148.72,189.3Z" transform="translate(-54.97 -26.16)"/><path class="cls-37" d="M130.87,198.54s11.82-1.1,13.89-6.68c0,0,3.92,5,6.22,4.76,0,0,.37-6.6-1-7.49s-19.56,1-19.56,1A28.71,28.71,0,0,0,130.87,198.54Z" transform="translate(-54.97 -26.16)"/><path class="cls-36" d="M118.69,273.4s3.23,6.8,3.42,7,.57,1.42,2.31.55c0,0,.82,2.22,1.89,1.93a9.8,9.8,0,0,0,2.16-.93s1.29,1.72,2.26.81c1.12-1.07.06-2.25-.74-3.54,0,0-2.51-4.48-2.26-4.75.67-.73,1.82-1,4.21,1.19s4.29.71,2.59-1.17-4-4.27-5.19-4.75a5.38,5.38,0,0,0-3.11.25l-.58-.83Z" transform="translate(-54.97 -26.16)"/><path class="cls-5" d="M170.45,259.12s-1.82,5.16-5,6-20.92,4.47-20.92,4.47v-7Z" transform="translate(-54.97 -26.16)"/><path class="cls-36" d="M144.55,263.43h-1.36a9.06,9.06,0,0,0-.49-1.26c-.56-.9-8-1.85-7.85-.87s1.35,1.21,4,1.7c0,0-9.8,2.37-8.88,3.15s7-1,7-1-6.63,2.16-6.16,3.63c.27.84,7-1.14,7-1.14s-6.85,2.45-5.63,3.28,8.78-1,9.51-1.3,1-1.66,1-1.66l1.85-.32Z" transform="translate(-54.97 -26.16)"/><path class="cls-37" d="M139,179.18a10.65,10.65,0,0,0,1,3.38c.25.39.89,0,.63-.37a10.39,10.39,0,0,1-.92-3.21c-.11-.46-.82-.26-.71.2Z" transform="translate(-54.97 -26.16)"/><path class="cls-37" d="M140.56,182.62c.37-.66.77-1.31,1.2-1.94.26-.39-.37-.76-.63-.37-.43.63-.83,1.28-1.21,1.94-.23.42.41.79.64.37Z" transform="translate(-54.97 -26.16)"/><path class="cls-43" d="M142,198a17.65,17.65,0,0,0,.1,2.52c.05.43,0,1.2.3,1.52s.53.18.75.21c.8.13,1.61.22,2.42.33,0-.11-.09-.21-.13-.32a7.69,7.69,0,0,1-2.29,1.5c-.22.09,0,.41.18.32a7.81,7.81,0,0,0,2.37-1.56.19.19,0,0,0-.13-.31c-.84-.11-2.55,0-3-.9a8.37,8.37,0,0,1-.21-3.31c0-.23-.36-.23-.37,0Z" transform="translate(-54.97 -26.16)"/><path class="cls-44" d="M145.74,200.55c.1-.83-.43-2.79.62-3.19s1.53.42,1.68,1.21l.27,1.48c0,.24.39.14.35-.09-.22-1.22-.27-3.3-2.08-3.05s-1.07,2.57-1.21,3.64c0,.24.34.24.37,0Z" transform="translate(-54.97 -26.16)"/><path class="cls-44" d="M136.28,201.05c.11-.83-.43-2.79.63-3.19s1.53.42,1.67,1.21l.27,1.48c0,.24.4.14.36-.09-.22-1.22-.28-3.3-2.09-3.05s-1.07,2.57-1.21,3.64c0,.24.34.24.37,0Z" transform="translate(-54.97 -26.16)"/><path class="cls-43" d="M138.78,203.18c.39,3,5.55,3.66,7.45,1.81.17-.17-.09-.42-.26-.26-1.58,1.55-6.47,1.18-6.83-1.55,0-.23-.39-.23-.36,0Z" transform="translate(-54.97 -26.16)"/><path class="cls-43" d="M138.71,203.69a.69.69,0,0,1,.77-.47c.23,0,.33-.32.09-.36a1.08,1.08,0,0,0-1.22.73c-.07.23.28.33.36.1Z" transform="translate(-54.97 -26.16)"/><g class="cls-45"><path class="cls-46" d="M138.25,202c.16.41-.56,1.08-1.66,1.32a3,3,0,0,1-1.41,0,1.1,1.1,0,0,1-.63-.4.37.37,0,0,1,0-.35,1.25,1.25,0,0,1,.41-.37,4.66,4.66,0,0,1,1.26-.45C137.21,201.51,138.08,201.55,138.25,202Z" transform="translate(-54.97 -26.16)"/></g><g class="cls-45"><path class="cls-46" d="M150.27,201.13c.16.41-.56,1.07-1.66,1.31a3,3,0,0,1-1.4,0,1,1,0,0,1-.63-.4.35.35,0,0,1,0-.35,1.11,1.11,0,0,1,.4-.37,4.66,4.66,0,0,1,1.26-.45C149.23,200.67,150.11,200.71,150.27,201.13Z" transform="translate(-54.97 -26.16)"/></g><path class="cls-43" d="M130.21,198.85a1.16,1.16,0,0,0-1,1.37,1.33,1.33,0,0,0,1.24,1.25c.23,0,.23-.35,0-.37-1-.07-1.28-1.85-.2-1.89a.18.18,0,1,0,0-.36Z" transform="translate(-54.97 -26.16)"/><path class="cls-43" d="M129.23,199.85a1.72,1.72,0,0,0,1.44.63c.23,0,.23-.38,0-.37a1.36,1.36,0,0,1-1.18-.52c-.14-.19-.4.07-.26.26Z" transform="translate(-54.97 -26.16)"/><path class="cls-43" d="M151.67,199.48c.79.19,1.23-.54,1.33-1.22a1.33,1.33,0,0,0-1.16-1.57c-.24,0-.23.35,0,.37a1,1,0,0,1,.81,1c0,.46-.27,1.17-.88,1-.23-.05-.33.3-.1.36Z" transform="translate(-54.97 -26.16)"/><path class="cls-43" d="M151.89,198.4a1.91,1.91,0,0,0,.63-1.18c0-.23-.32-.33-.35-.1a1.63,1.63,0,0,1-.54,1c-.17.15.09.41.26.26Z" transform="translate(-54.97 -26.16)"/></svg>